<svg xmlns="http://www.w3.org/2000/svg" xmlns:xlink="http://www.w3.org/1999/xlink" width="204" height="289">
    <g transform="translate(0.5,0.5)">
        <rect x="61" y="0" width="80" height="40" fill="#7acff5" stroke="#000000" pointer-events="none"/>
        <path d="M 61 18 L 141 18" fill="none" stroke="#000000" stroke-miterlimit="10" pointer-events="none"/>
        <g fill="#000000" font-family="Helvetica" font-weight="bold" text-anchor="middle" font-size="12px">
            <text x="100.5" y="12.5">Vehicle</text>
        </g>
        <rect x="15" y="86" width="80" height="40" fill="#7acff5" stroke="#000000" pointer-events="none"/>
        <path d="M 15 104 L 95 104" fill="none" stroke="#000000" stroke-miterlimit="10" pointer-events="none"/>
        <g fill="#000000" font-family="Helvetica" font-weight="bold" text-anchor="middle" font-size="12px">
            <text x="54.5" y="98.5">Bus</text>
        </g>
        <rect x="106" y="86" width="80" height="40" fill="#7acff5" stroke="#000000" pointer-events="none"/>
        <path d="M 106 104 L 186 104" fill="none" stroke="#000000" stroke-miterlimit="10" pointer-events="none"/>
        <g fill="#000000" font-family="Helvetica" font-weight="bold" text-anchor="middle" font-size="12px">
            <text x="145.5" y="98.5">Car</text>
        </g>
        <rect x="47" y="157" width="108" height="44" fill="#7acff5" stroke="#000000" pointer-events="none"/>
        <path d="M 47 175 L 155 175" fill="none" stroke="#000000" stroke-miterlimit="10" pointer-events="none"/>
        <g fill="#000000" font-family="Helvetica" font-weight="bold" text-anchor="middle" font-size="12px">
            <text x="100.5" y="169.5">VehicleFactory</text>
        </g>
        <g fill="#000000" font-family="Helvetica" font-size="12px">
            <text x="53.5" y="191.5">createVehicle()</text>
        </g>
        <path d="M 35 86 L 35 73 Q 35 63 45 63 L 71 63 Q 81 63 81 53 L 81 40" fill="none" stroke="#000000" stroke-miterlimit="10" pointer-events="none"/>
        <path d="M 166 86 L 166 73 Q 166 63 156 63 L 131 63 Q 121 63 121 53 L 121 40" fill="none" stroke="#000000" stroke-miterlimit="10" pointer-events="none"/>
        <rect x="0" y="242" width="95" height="44" fill="#7acff5" stroke="#000000" pointer-events="none"/>
        <path d="M 0 260 L 95 260" fill="none" stroke="#000000" stroke-miterlimit="10" pointer-events="none"/>
        <g fill="#000000" font-family="Helvetica" font-weight="bold" text-anchor="middle" font-size="12px">
            <text x="47" y="254.5">BusFactory</text>
        </g>
        <g fill="#000000" font-family="Helvetica" font-size="12px">
            <text x="6.5" y="276.5">createVehicle()</text>
        </g>
        <rect x="106" y="242" width="95" height="44" fill="#7acff5" stroke="#000000" pointer-events="none"/>
        <path d="M 106 260 L 201 260" fill="none" stroke="#000000" stroke-miterlimit="10" pointer-events="none"/>
        <g fill="#000000" font-family="Helvetica" font-weight="bold" text-anchor="middle" font-size="12px">
            <text x="153" y="254.5">CarFactory</text>
        </g>
        <g fill="#000000" font-family="Helvetica" font-size="12px">
            <text x="112.5" y="276.5">createVehicle()</text>
        </g>
        <path d="M 24 242 L 24 232 Q 24 222 34 222 L 64 222 Q 74 222 74 212 L 74 201" fill="none" stroke="#000000" stroke-miterlimit="10" pointer-events="none"/>
        <path d="M 177 242 L 177 232 Q 177 222 167 222 L 138 222 Q 128 222 128 212 L 128 201" fill="none" stroke="#000000" stroke-miterlimit="10" pointer-events="none"/>
        <path d="M 35 86 L 35 73 Q 35 63 45 63 L 71 63 Q 81 63 81 53 L 81 40" fill="none" stroke="#000000" stroke-miterlimit="10" pointer-events="none"/>
        <path d="M 166 86 L 166 73 Q 166 63 156 63 L 131 63 Q 121 63 121 53 L 121 40" fill="none" stroke="#000000" stroke-miterlimit="10" pointer-events="none"/>
        <path d="M 35 86 L 35 73 Q 35 63 45 63 L 71 63 Q 81 63 81 53 L 81 40" fill="none" stroke="#000000" stroke-miterlimit="10" pointer-events="none"/>
        <path d="M 166 86 L 166 73 Q 166 63 156 63 L 131 63 Q 121 63 121 53 L 121 40" fill="none" stroke="#000000" stroke-miterlimit="10" pointer-events="none"/>
        <path d="M 24 242 L 24 232 Q 24 222 34 222 L 64 222 Q 74 222 74 212 L 74 201" fill="none" stroke="#000000" stroke-miterlimit="10" pointer-events="none"/>
        <path d="M 177 242 L 177 232 Q 177 222 167 222 L 138 222 Q 128 222 128 212 L 128 201" fill="none" stroke="#000000" stroke-miterlimit="10" pointer-events="none"/>
        <path d="M 24 242 L 24 232 Q 24 222 34 222 L 64 222 Q 74 222 74 212 L 74 201" fill="none" stroke="#000000" stroke-miterlimit="10" pointer-events="none"/>
        <path d="M 177 242 L 177 232 Q 177 222 167 222 L 138 222 Q 128 222 128 212 L 128 201" fill="none" stroke="#000000" stroke-miterlimit="10" pointer-events="none"/>
    </g>
</svg>