<svg xmlns="http://www.w3.org/2000/svg" xmlns:xlink="http://www.w3.org/1999/xlink" width="426" height="314">
    <g transform="translate(0.5,0.5)">
        <rect x="45" y="0" width="80" height="40" fill="#7acff5" stroke="#000000" pointer-events="none"/>
        <path d="M 45 18 L 125 18" fill="none" stroke="#000000" stroke-miterlimit="10" pointer-events="none"/>
        <g fill="#000000" font-family="Helvetica" font-weight="bold" text-anchor="middle" font-size="12px">
            <text x="84.5" y="12.5">Engine</text>
        </g>
        <rect x="0" y="76" width="80" height="40" fill="#7acff5" stroke="#000000" pointer-events="none"/>
        <path d="M 0 94 L 80 94" fill="none" stroke="#000000" stroke-miterlimit="10" pointer-events="none"/>
        <g fill="#000000" font-family="Helvetica" font-weight="bold" text-anchor="middle" font-size="12px">
            <text x="39.5" y="88.5">BusEngine</text>
        </g>
        <rect x="91" y="76" width="80" height="40" fill="#7acff5" stroke="#000000" pointer-events="none"/>
        <path d="M 91 94 L 171 94" fill="none" stroke="#000000" stroke-miterlimit="10" pointer-events="none"/>
        <g fill="#000000" font-family="Helvetica" font-weight="bold" text-anchor="middle" font-size="12px">
            <text x="130.5" y="88.5">CarEngine</text>
        </g>
        <rect x="278" y="0" width="80" height="40" fill="#7acff5" stroke="#000000" pointer-events="none"/>
        <path d="M 278 18 L 358 18" fill="none" stroke="#000000" stroke-miterlimit="10" pointer-events="none"/>
        <g fill="#000000" font-family="Helvetica" font-weight="bold" text-anchor="middle" font-size="12px">
            <text x="317.5" y="12.5">Headlight</text>
        </g>
        <rect x="211" y="76" width="100" height="40" fill="#7acff5" stroke="#000000" pointer-events="none"/>
        <path d="M 211 94 L 311 94" fill="none" stroke="#000000" stroke-miterlimit="10" pointer-events="none"/>
        <g fill="#000000" font-family="Helvetica" font-weight="bold" text-anchor="middle" font-size="12px">
            <text x="260.5" y="88.5">BusHeadlight</text>
        </g>
        <rect x="323" y="76" width="100" height="40" fill="#7acff5" stroke="#000000" pointer-events="none"/>
        <path d="M 323 94 L 423 94" fill="none" stroke="#000000" stroke-miterlimit="10" pointer-events="none"/>
        <g fill="#000000" font-family="Helvetica" font-weight="bold" text-anchor="middle" font-size="12px">
            <text x="372.5" y="88.5">CarHeadlight</text>
        </g>
        <rect x="143" y="151" width="107" height="60" fill="#7acff5" stroke="#000000" pointer-events="none"/>
        <path d="M 143 169 L 250 169" fill="none" stroke="#000000" stroke-miterlimit="10" pointer-events="none"/>
        <g fill="#000000" font-family="Helvetica" font-weight="bold" text-anchor="middle" font-size="12px">
            <text x="196" y="163.5">VehicleFactory</text>
        </g>
        <g fill="#000000" font-family="Helvetica" font-size="12px">
            <text x="149.5" y="185.5">createEngine()</text>
        </g>
        <g fill="#000000" font-family="Helvetica" font-size="12px">
            <text x="149.5" y="201.5">createHeadlight()</text>
        </g>
        <rect x="85" y="251" width="107" height="60" fill="#7acff5" stroke="#000000" pointer-events="none"/>
        <path d="M 85 269 L 192 269" fill="none" stroke="#000000" stroke-miterlimit="10" pointer-events="none"/>
        <g fill="#000000" font-family="Helvetica" font-weight="bold" text-anchor="middle" font-size="12px">
            <text x="138" y="263.5">BusFactory</text>
        </g>
        <g fill="#000000" font-family="Helvetica" font-size="12px">
            <text x="91.5" y="285.5">createEngine()</text>
        </g>
        <g fill="#000000" font-family="Helvetica" font-size="12px">
            <text x="91.5" y="301.5">createHeadlight()</text>
        </g>
        <rect x="204" y="251" width="107" height="60" fill="#7acff5" stroke="#000000" pointer-events="none"/>
        <path d="M 204 269 L 311 269" fill="none" stroke="#000000" stroke-miterlimit="10" pointer-events="none"/>
        <g fill="#000000" font-family="Helvetica" font-weight="bold" text-anchor="middle" font-size="12px">
            <text x="257" y="263.5">CarFactory</text>
        </g>
        <g fill="#000000" font-family="Helvetica" font-size="12px">
            <text x="210.5" y="285.5">createEngine()</text>
        </g>
        <g fill="#000000" font-family="Helvetica" font-size="12px">
            <text x="210.5" y="301.5">createHeadlight()</text>
        </g>
        <path d="M 20 76 L 20 67 Q 20 58 30 58 L 55 58 Q 65 58 65 49 L 65 40" fill="none" stroke="#000000" stroke-miterlimit="10" pointer-events="none"/>
        <path d="M 151 76 L 151 67 Q 151 58 141 58 L 115 58 Q 105 58 105 49 L 105 40" fill="none" stroke="#000000" stroke-miterlimit="10" pointer-events="none"/>
        <path d="M 236 76 L 236 67 Q 236 58 246 58 L 288 58 Q 298 58 298 49 L 298 40" fill="none" stroke="#000000" stroke-miterlimit="10" pointer-events="none"/>
        <path d="M 398 76 L 398 67 Q 398 58 388 58 L 348 58 Q 338 58 338 49 L 338 40" fill="none" stroke="#000000" stroke-miterlimit="10" pointer-events="none"/>
        <path d="M 112 251 L 112 241 Q 112 231 122 231 L 160 231 Q 170 231 170 221 L 170 211" fill="none" stroke="#000000" stroke-miterlimit="10" pointer-events="none"/>
        <path d="M 284 251 L 284 241 Q 284 231 274 231 L 233 231 Q 223 231 223 221 L 223 211" fill="none" stroke="#000000" stroke-miterlimit="10" pointer-events="none"/>
        <path d="M 20 76 L 20 67 Q 20 58 30 58 L 55 58 Q 65 58 65 49 L 65 40" fill="none" stroke="#000000" stroke-miterlimit="10" pointer-events="none"/>
        <path d="M 151 76 L 151 67 Q 151 58 141 58 L 115 58 Q 105 58 105 49 L 105 40" fill="none" stroke="#000000" stroke-miterlimit="10" pointer-events="none"/>
        <path d="M 20 76 L 20 67 Q 20 58 30 58 L 55 58 Q 65 58 65 49 L 65 40" fill="none" stroke="#000000" stroke-miterlimit="10" pointer-events="none"/>
        <path d="M 151 76 L 151 67 Q 151 58 141 58 L 115 58 Q 105 58 105 49 L 105 40" fill="none" stroke="#000000" stroke-miterlimit="10" pointer-events="none"/>
        <path d="M 236 76 L 236 67 Q 236 58 246 58 L 288 58 Q 298 58 298 49 L 298 40" fill="none" stroke="#000000" stroke-miterlimit="10" pointer-events="none"/>
        <path d="M 398 76 L 398 67 Q 398 58 388 58 L 348 58 Q 338 58 338 49 L 338 40" fill="none" stroke="#000000" stroke-miterlimit="10" pointer-events="none"/>
        <path d="M 236 76 L 236 67 Q 236 58 246 58 L 288 58 Q 298 58 298 49 L 298 40" fill="none" stroke="#000000" stroke-miterlimit="10" pointer-events="none"/>
        <path d="M 398 76 L 398 67 Q 398 58 388 58 L 348 58 Q 338 58 338 49 L 338 40" fill="none" stroke="#000000" stroke-miterlimit="10" pointer-events="none"/>
        <path d="M 112 251 L 112 241 Q 112 231 122 231 L 160 231 Q 170 231 170 221 L 170 211" fill="none" stroke="#000000" stroke-miterlimit="10" pointer-events="none"/>
        <path d="M 284 251 L 284 241 Q 284 231 274 231 L 233 231 Q 223 231 223 221 L 223 211" fill="none" stroke="#000000" stroke-miterlimit="10" pointer-events="none"/>
        <path d="M 112 251 L 112 241 Q 112 231 122 231 L 160 231 Q 170 231 170 221 L 170 211" fill="none" stroke="#000000" stroke-miterlimit="10" pointer-events="none"/>
        <path d="M 284 251 L 284 241 Q 284 231 274 231 L 233 231 Q 223 231 223 221 L 223 211" fill="none" stroke="#000000" stroke-miterlimit="10" pointer-events="none"/>
    </g>
</svg>