<svg xmlns="http://www.w3.org/2000/svg" xmlns:xlink="http://www.w3.org/1999/xlink" width="189" height="141">
    <g transform="translate(0.5,0.5)">
        <rect x="59" y="0" width="69" height="47" fill="#7acff5" stroke="#000000" pointer-events="none"/>
        <path d="M 59 18 L 128 18" fill="none" stroke="#000000" stroke-miterlimit="10" pointer-events="none"/>
        <g fill="#000000" font-family="Helvetica" font-weight="bold" text-anchor="middle" font-size="12px">
            <text x="93" y="12.5">Prototype</text>
        </g>
        <g fill="#000000" font-family="Helvetica" font-size="12px">
            <text x="65.5" y="34.5">__clone()</text>
        </g>
        <rect x="0.5" y="91" width="88" height="47" fill="#7acff5" stroke="#000000" pointer-events="none"/>
        <path d="M 0.5 109 L 88.5 109" fill="none" stroke="#000000" stroke-miterlimit="10" pointer-events="none"/>
        <g fill="#000000" font-family="Helvetica" font-weight="bold" text-anchor="middle" font-size="12px">
            <text x="44" y="103.5">FooPrototype</text>
        </g>
        <g fill="#000000" font-family="Helvetica" font-size="12px">
            <text x="7" y="125.5">__clone()</text>
        </g>
        <rect x="98.5" y="91" width="88" height="46" fill="#7acff5" stroke="#000000" pointer-events="none"/>
        <path d="M 98.5 109 L 186.5 109" fill="none" stroke="#000000" stroke-miterlimit="10" pointer-events="none"/>
        <g fill="#000000" font-family="Helvetica" font-weight="bold" text-anchor="middle" font-size="12px">
            <text x="142" y="103.5">BarPrototype</text>
        </g>
        <g fill="#000000" font-family="Helvetica" font-size="12px">
            <text x="105" y="125.5">__clone()</text>
        </g>
        <path d="M 23 91 L 23 79 Q 23 69 33 69 L 66 69 Q 76 69 76 59 L 76 47" fill="none" stroke="#000000" stroke-miterlimit="10" pointer-events="none"/>
        <path d="M 165 91 L 165 79 Q 165 69 155 69 L 121 69 Q 111 69 111 59 L 111 47" fill="none" stroke="#000000" stroke-miterlimit="10" pointer-events="none"/>
        <path d="M 23 91 L 23 79 Q 23 69 33 69 L 66 69 Q 76 69 76 59 L 76 47" fill="none" stroke="#000000" stroke-miterlimit="10" pointer-events="none"/>
        <path d="M 165 91 L 165 79 Q 165 69 155 69 L 121 69 Q 111 69 111 59 L 111 47" fill="none" stroke="#000000" stroke-miterlimit="10" pointer-events="none"/>
        <path d="M 23 91 L 23 79 Q 23 69 33 69 L 66 69 Q 76 69 76 59 L 76 47" fill="none" stroke="#000000" stroke-miterlimit="10" pointer-events="none"/>
        <path d="M 165 91 L 165 79 Q 165 69 155 69 L 121 69 Q 111 69 111 59 L 111 47" fill="none" stroke="#000000" stroke-miterlimit="10" pointer-events="none"/>
    </g>
</svg>