<svg xmlns="http://www.w3.org/2000/svg" xmlns:xlink="http://www.w3.org/1999/xlink" width="406" height="504">
    <g transform="translate(0.5,0.5)">
        <rect x="46" y="0" width="80" height="40" fill="#7acff5" stroke="#000000" pointer-events="none"/>
        <path d="M 46 18 L 126 18" fill="none" stroke="#000000" stroke-miterlimit="10" pointer-events="none"/>
        <g fill="#000000" font-family="Helvetica" font-weight="bold" text-anchor="middle" font-size="12px">
            <text x="85.5" y="12.5">Parts</text>
        </g>
        <rect x="0" y="81" width="80" height="40" fill="#7acff5" stroke="#000000" pointer-events="none"/>
        <path d="M 0 99 L 80 99" fill="none" stroke="#000000" stroke-miterlimit="10" pointer-events="none"/>
        <g fill="#000000" font-family="Helvetica" font-weight="bold" text-anchor="middle" font-size="12px">
            <text x="39.5" y="93.5">Engine</text>
        </g>
        <rect x="91" y="81" width="80" height="40" fill="#7acff5" stroke="#000000" pointer-events="none"/>
        <path d="M 91 99 L 171 99" fill="none" stroke="#000000" stroke-miterlimit="10" pointer-events="none"/>
        <g fill="#000000" font-family="Helvetica" font-weight="bold" text-anchor="middle" font-size="12px">
            <text x="130.5" y="93.5">Headlight</text>
        </g>
        <path d="M 20 81 L 20 71 Q 20 61 30 61 L 56 61 Q 66 61 66 51 L 66 40" fill="none" stroke="#000000" stroke-miterlimit="10" pointer-events="none"/>
        <path d="M 151 81 L 151 71 Q 151 61 141 61 L 116 61 Q 106 61 106 51 L 106 40" fill="none" stroke="#000000" stroke-miterlimit="10" pointer-events="none"/>
        <rect x="239" y="0" width="158" height="60" fill="#7acff5" stroke="#000000" pointer-events="none"/>
        <path d="M 239 18 L 397 18" fill="none" stroke="#000000" stroke-miterlimit="10" pointer-events="none"/>
        <path d="M 239 39 L 397 39" fill="none" stroke="#000000" stroke-miterlimit="10" pointer-events="none"/>
        <g fill="#000000" font-family="Helvetica" font-weight="bold" text-anchor="middle" font-size="12px">
            <text x="317.5" y="12.5">Vehicle</text>
        </g>
        <g fill="#000000" font-family="Helvetica" font-size="12px">
            <text x="245.5" y="32.5">$information</text>
        </g>
        <g fill="#000000" font-family="Helvetica" font-size="12px">
            <text x="245.5" y="50.5">installParts($name, $parts)</text>
        </g>
        <rect x="232" y="96" width="80" height="40" fill="#7acff5" stroke="#000000" pointer-events="none"/>
        <path d="M 232 114 L 312 114" fill="none" stroke="#000000" stroke-miterlimit="10" pointer-events="none"/>
        <g fill="#000000" font-family="Helvetica" font-weight="bold" text-anchor="middle" font-size="12px">
            <text x="271.5" y="108.5">Bus</text>
        </g>
        <rect x="323" y="96" width="80" height="40" fill="#7acff5" stroke="#000000" pointer-events="none"/>
        <path d="M 323 114 L 403 114" fill="none" stroke="#000000" stroke-miterlimit="10" pointer-events="none"/>
        <g fill="#000000" font-family="Helvetica" font-weight="bold" text-anchor="middle" font-size="12px">
            <text x="362.5" y="108.5">Car</text>
        </g>
        <path d="M 252 96 L 252 87 Q 252 78 262 78 L 270.5 78 Q 279 78 279 69 L 279 60" fill="none" stroke="#000000" stroke-miterlimit="10" pointer-events="none"/>
        <path d="M 383 96 L 383 87 Q 383 78 373 78 L 365.5 78 Q 358 78 358 69 L 358 60" fill="none" stroke="#000000" stroke-miterlimit="10" pointer-events="none"/>
        <rect x="150" y="178" width="120" height="92" fill="#7acff5" stroke="#000000" pointer-events="none"/>
        <path d="M 150 196 L 270 196" fill="none" stroke="#000000" stroke-miterlimit="10" pointer-events="none"/>
        <g fill="#000000" font-family="Helvetica" font-weight="bold" text-anchor="middle" font-size="12px">
            <text x="209.5" y="190.5">VehicleBuilder</text>
        </g>
        <g fill="#000000" font-family="Helvetica" font-size="12px">
            <text x="156.5" y="212.5">createVehicle()</text>
        </g>
        <g fill="#000000" font-family="Helvetica" font-size="12px">
            <text x="156.5" y="228.5">addEngine()</text>
        </g>
        <g fill="#000000" font-family="Helvetica" font-size="12px">
            <text x="156.5" y="244.5">addHeadlight()</text>
        </g>
        <g fill="#000000" font-family="Helvetica" font-size="12px">
            <text x="156.5" y="260.5">getVehicle()</text>
        </g>
        <rect x="110" y="308" width="95" height="106" fill="#7acff5" stroke="#000000" pointer-events="none"/>
        <path d="M 110 326 L 205 326" fill="none" stroke="#000000" stroke-miterlimit="10" pointer-events="none"/>
        <path d="M 110 347 L 205 347" fill="none" stroke="#000000" stroke-miterlimit="10" pointer-events="none"/>
        <g fill="#000000" font-family="Helvetica" font-weight="bold" text-anchor="middle" font-size="12px">
            <text x="157" y="320.5">BusBuilder</text>
        </g>
        <g fill="#000000" font-family="Helvetica" font-size="12px">
            <text x="116.5" y="340.5">$bus</text>
        </g>
        <g fill="#000000" font-family="Helvetica" font-size="12px">
            <text x="116.5" y="358.5">createVehicle()</text>
        </g>
        <g fill="#000000" font-family="Helvetica" font-size="12px">
            <text x="116.5" y="374.5">addEngine()</text>
        </g>
        <g fill="#000000" font-family="Helvetica" font-size="12px">
            <text x="116.5" y="390.5">addHeadlight()</text>
        </g>
        <g fill="#000000" font-family="Helvetica" font-size="12px">
            <text x="116.5" y="406.5">getVehicle()</text>
        </g>
        <rect x="217" y="308" width="95" height="106" fill="#7acff5" stroke="#000000" pointer-events="none"/>
        <path d="M 217 326 L 312 326" fill="none" stroke="#000000" stroke-miterlimit="10" pointer-events="none"/>
        <path d="M 217 347 L 312 347" fill="none" stroke="#000000" stroke-miterlimit="10" pointer-events="none"/>
        <g fill="#000000" font-family="Helvetica" font-weight="bold" text-anchor="middle" font-size="12px">
            <text x="264" y="320.5">CarBuilder</text>
        </g>
        <g fill="#000000" font-family="Helvetica" font-size="12px">
            <text x="223.5" y="340.5">$car</text>
        </g>
        <g fill="#000000" font-family="Helvetica" font-size="12px">
            <text x="223.5" y="358.5">createVehicle()</text>
        </g>
        <g fill="#000000" font-family="Helvetica" font-size="12px">
            <text x="223.5" y="374.5">addEngine()</text>
        </g>
        <g fill="#000000" font-family="Helvetica" font-size="12px">
            <text x="223.5" y="390.5">addHeadlight()</text>
        </g>
        <g fill="#000000" font-family="Helvetica" font-size="12px">
            <text x="223.5" y="406.5">getVehicle()</text>
        </g>
        <path d="M 134 308 L 134 298.5 Q 134 289 144 289 L 170 289 Q 180 289 180 279.5 L 180 270" fill="none" stroke="#000000" stroke-miterlimit="10" pointer-events="none"/>
        <path d="M 288 308 L 288 298.5 Q 288 289 278 289 L 250 289 Q 240 289 240 279.5 L 240 270" fill="none" stroke="#000000" stroke-miterlimit="10" pointer-events="none"/>
        <rect x="164.5" y="457" width="91" height="44" fill="#7acff5" stroke="#000000" pointer-events="none"/>
        <path d="M 164.5 475 L 255.5 475" fill="none" stroke="#000000" stroke-miterlimit="10" pointer-events="none"/>
        <g fill="#000000" font-family="Helvetica" font-weight="bold" text-anchor="middle" font-size="12px">
            <text x="209.5" y="469.5">Builder</text>
        </g>
        <g fill="#000000" font-family="Helvetica" font-size="12px">
            <text x="171" y="491.5">build($builder)</text>
        </g>
        <path d="M 20 81 L 20 71 Q 20 61 30 61 L 56 61 Q 66 61 66 51 L 66 40" fill="none" stroke="#000000" stroke-miterlimit="10" pointer-events="none"/>
        <path d="M 151 81 L 151 71 Q 151 61 141 61 L 116 61 Q 106 61 106 51 L 106 40" fill="none" stroke="#000000" stroke-miterlimit="10" pointer-events="none"/>
        <path d="M 20 81 L 20 71 Q 20 61 30 61 L 56 61 Q 66 61 66 51 L 66 40" fill="none" stroke="#000000" stroke-miterlimit="10" pointer-events="none"/>
        <path d="M 151 81 L 151 71 Q 151 61 141 61 L 116 61 Q 106 61 106 51 L 106 40" fill="none" stroke="#000000" stroke-miterlimit="10" pointer-events="none"/>
        <path d="M 252 96 L 252 87 Q 252 78 262 78 L 270.5 78 Q 279 78 279 69 L 279 60" fill="none" stroke="#000000" stroke-miterlimit="10" pointer-events="none"/>
        <path d="M 383 96 L 383 87 Q 383 78 373 78 L 365.5 78 Q 358 78 358 69 L 358 60" fill="none" stroke="#000000" stroke-miterlimit="10" pointer-events="none"/>
        <path d="M 252 96 L 252 87 Q 252 78 262 78 L 270.5 78 Q 279 78 279 69 L 279 60" fill="none" stroke="#000000" stroke-miterlimit="10" pointer-events="none"/>
        <path d="M 383 96 L 383 87 Q 383 78 373 78 L 365.5 78 Q 358 78 358 69 L 358 60" fill="none" stroke="#000000" stroke-miterlimit="10" pointer-events="none"/>
        <path d="M 134 308 L 134 298.5 Q 134 289 144 289 L 170 289 Q 180 289 180 279.5 L 180 270" fill="none" stroke="#000000" stroke-miterlimit="10" pointer-events="none"/>
        <path d="M 288 308 L 288 298.5 Q 288 289 278 289 L 250 289 Q 240 289 240 279.5 L 240 270" fill="none" stroke="#000000" stroke-miterlimit="10" pointer-events="none"/>
        <path d="M 134 308 L 134 298.5 Q 134 289 144 289 L 170 289 Q 180 289 180 279.5 L 180 270" fill="none" stroke="#000000" stroke-miterlimit="10" pointer-events="none"/>
        <path d="M 288 308 L 288 298.5 Q 288 289 278 289 L 250 289 Q 240 289 240 279.5 L 240 270" fill="none" stroke="#000000" stroke-miterlimit="10" pointer-events="none"/>
    </g>
</svg>