<svg width="54px" height="54px" viewBox="0 0 54 54" version="1.1" xmlns="http://www.w3.org/2000/svg" xmlns:xlink="http://www.w3.org/1999/xlink" xmlns:sketch="http://www.bohemiancoding.com/sketch/ns">
    <g id="Page-1" stroke="none" stroke-width="1" fill="none" fill-rule="evenodd" sketch:type="MSPage">
        <g id="62---Documents-(Flat)" sketch:type="MSLayerGroup">
            <path d="M0,38 L18,38 L18,54 L0,54 L0,38 Z" id="Fill-58" fill="#556080" sketch:type="MSShapeGroup"></path>
            <path d="M0,0 L18,0 L18,38 L0,38 L0,0 Z" id="Fill-59" fill="#71C285" sketch:type="MSShapeGroup"></path>
            <path d="M18,0 L36,0 L36,38 L18,38 L18,0 Z" id="Fill-60" fill="#E4C05C" sketch:type="MSShapeGroup"></path>
            <path d="M18,38 L36,38 L36,54 L18,54 L18,38 Z" id="Fill-61" fill="#47516B" sketch:type="MSShapeGroup"></path>
            <path d="M36,0 L54,0 L54,38 L36,38 L36,0 Z" id="Fill-62" fill="#F09372" sketch:type="MSShapeGroup"></path>
            <path d="M36,38 L54,38 L54,54 L36,54 L36,38 Z" id="Fill-63" fill="#556080" sketch:type="MSShapeGroup"></path>
            <path d="M4,41 L14,41 L14,51 L4,51 L4,41 Z" id="Fill-1264" fill="#8A98BC" sketch:type="MSShapeGroup"></path>
            <path d="M22,41 L32,41 L32,51 L22,51 L22,41 Z" id="Fill-1265" fill="#626F8E" sketch:type="MSShapeGroup"></path>
            <path d="M40,41 L50,41 L50,51 L40,51 L40,41 Z" id="Fill-1266" fill="#8A98BC" sketch:type="MSShapeGroup"></path>
            <path d="M4,4.125 L14,4.125 L14,8.125 L4,8.125 L4,4.125 Z" id="Fill-1267" fill="#FFFFFF" sketch:type="MSShapeGroup"></path>
            <path d="M22,4.125 L32,4.125 L32,8.125 L22,8.125 L22,4.125 Z" id="Fill-1268" fill="#FFFFFF" sketch:type="MSShapeGroup"></path>
            <path d="M40,4.125 L50,4.125 L50,8.125 L40,8.125 L40,4.125 Z" id="Fill-1269" fill="#FFFFFF" sketch:type="MSShapeGroup"></path>
        </g>
    </g>
</svg>