<svg xmlns="http://www.w3.org/2000/svg" xmlns:xlink="http://www.w3.org/1999/xlink" width="174" height="204">
    <g transform="translate(0.5,0.5)">
        <rect x="46" y="0" width="80" height="40" fill="#7acff5" stroke="#000000" pointer-events="none"/>
        <path d="M 46 18 L 126 18" fill="none" stroke="#000000" stroke-miterlimit="10" pointer-events="none"/>
        <g fill="#000000" font-family="Helvetica" font-weight="bold" text-anchor="middle" font-size="12px">
            <text x="85.5" y="12.5">Vehicle</text>
        </g>
        <rect x="0" y="86" width="80" height="40" fill="#7acff5" stroke="#000000" pointer-events="none"/>
        <path d="M 0 104 L 80 104" fill="none" stroke="#000000" stroke-miterlimit="10" pointer-events="none"/>
        <g fill="#000000" font-family="Helvetica" font-weight="bold" text-anchor="middle" font-size="12px">
            <text x="39.5" y="98.5">Bus</text>
        </g>
        <rect x="91" y="86" width="80" height="40" fill="#7acff5" stroke="#000000" pointer-events="none"/>
        <path d="M 91 104 L 171 104" fill="none" stroke="#000000" stroke-miterlimit="10" pointer-events="none"/>
        <g fill="#000000" font-family="Helvetica" font-weight="bold" text-anchor="middle" font-size="12px">
            <text x="130.5" y="98.5">Car</text>
        </g>
        <rect x="16.5" y="157" width="139" height="44" fill="#7acff5" stroke="#000000" pointer-events="none"/>
        <path d="M 16.5 175 L 155.5 175" fill="none" stroke="#000000" stroke-miterlimit="10" pointer-events="none"/>
        <g fill="#000000" font-family="Helvetica" font-weight="bold" text-anchor="middle" font-size="12px">
            <text x="85.5" y="169.5">StaticFactory</text>
        </g>
        <g fill="#000000" font-family="Helvetica" font-size="12px">
            <text x="23" y="191.5">createVehicle($vehicle)</text>
        </g>
        <path d="M 20 86 L 20 73 Q 20 63 30 63 L 56 63 Q 66 63 66 53 L 66 40" fill="none" stroke="#000000" stroke-miterlimit="10" pointer-events="none"/>
        <path d="M 151 86 L 151 73 Q 151 63 141 63 L 116 63 Q 106 63 106 53 L 106 40" fill="none" stroke="#000000" stroke-miterlimit="10" pointer-events="none"/>
        <path d="M 20 86 L 20 73 Q 20 63 30 63 L 56 63 Q 66 63 66 53 L 66 40" fill="none" stroke="#000000" stroke-miterlimit="10" pointer-events="none"/>
        <path d="M 151 86 L 151 73 Q 151 63 141 63 L 116 63 Q 106 63 106 53 L 106 40" fill="none" stroke="#000000" stroke-miterlimit="10" pointer-events="none"/>
        <path d="M 20 86 L 20 73 Q 20 63 30 63 L 56 63 Q 66 63 66 53 L 66 40" fill="none" stroke="#000000" stroke-miterlimit="10" pointer-events="none"/>
        <path d="M 151 86 L 151 73 Q 151 63 141 63 L 116 63 Q 106 63 106 53 L 106 40" fill="none" stroke="#000000" stroke-miterlimit="10" pointer-events="none"/>
    </g>
</svg>